# xmcd
#
# Track frame offsets:
#	150
#	12443
#	25453
#	39905
#	54882
#	68406
#	82154
#	91598
#	104729
#	117933
#	131012
#	145647
#	157096
#	173196
#	184625
#	199621
#	217119
#	228571
#	244471
#	257996
#	272263
#	289879
#	302591
#	316199
#	326953
#	338941
#
# Disc length: 4789 seconds
#
# Revision: 0
# Processed by: cddbd v1.5.2PL0 Copyright (c) Steve Scherf et al.
# Submitted via: EasyCDDAExtractor 16.0.6.1
#
DISCID=7c12b31a
DTITLE=Νταλάρας Γιώργος - Οι Μάηδες οι ήλιοι μου-26, Γ. Νταλάρας
DYEAR=1978
DGENRE=Έντεχνη λαϊκή
TTITLE0=Ξεκινάει τ' αρχοντολόϊ [Σ. Βαμβακάρης-Λ. Παπαδόπουλος]
TTITLE1=Πέθανε ο Αριστείδης [Σ. Βαμβακάρης-Κ. Κοφινιώτης]
TTITLE2=Τα μάρμαρα της Πόλης [Στέλιος Βαμβακάρης]
TTITLE3=Νά 'μαι από καμμιά μεριά [Σ. Βαμβακάρης-Λ. Παπαδόπουλος]
TTITLE4=Τα μαλλάκια σου κυρά μου [Σ. Βαμβακάρης-Λ. Παπαδόπουλος]
TTITLE5=Μάννα μου αλλιώς μού τά 'πες [Σ. Βαμβακάρης-Λ. Παπαδόπουλος]
TTITLE6=Τα βυζαντινά σου μάτια [Σ. Βαμβακάρης-Λ. Παπαδόπουλος]
TTITLE7=Προσφυγάκι [Χ. Γκάρτζος-Λ. Τεάζης]
TTITLE8=Σκορπίσανε οι φίλοι μου [Γ. Σπανός-Ε. Παπαγιαννοπούλου]
TTITLE9=Η φτώχεια μου καθρέφτης [Χ. Γκάρτζος-Λ. Τεάζης]
TTITLE10=Στην αλάνα [Γ. Σπανός-Λ. Παπαδόπουλος]
TTITLE11=Όποιος μαθαίνει να χτυπά [Χ. Γκάρτζος-Λ. Τεάζης]
TTITLE12=Πρώτη του Δεκέμβρη [Γ. Σπανός-Μ. Ελευθερίου]
TTITLE13=Άμα δε σε δω [Α. Βαρδής-Δ. Τζεφρώνης]
TTITLE14=Αθήνα [Χ. Γκάρτζος-Σ. Τσώτου]
TTITLE15=Στην Ανατολή, στην Δύση [Μ. Τερχής-Λ. Παπαδόπουλος]
TTITLE16=Άϊ μωρέ παιδιά [Χ. Γκάρτζος-Λ. Τεάζης]
TTITLE17=Μην ακούς [Μ. Τερζής-Λ. Παπαδόπουλος]
TTITLE18=Μετανάστης [Γ. Γερασιμίδης-Γ. Καλατζόπουλος]
TTITLE19=Μακριά απ' τα ψέματα [Ν. Λαβράνος-Μ. Ελευθερίου]
TTITLE20=Κάτω απ' την κληματαριά [Α. Βαρδής-Α. Αγγελάκης]
TTITLE21=Χελιδονάκι [Α. Βαρδής-Λ. Παπαδόπουλος]
TTITLE22=Δε φταίω [Γ. Σπανός-Λ. Παπαδόπουλος]
TTITLE23=Μόνο η αγάπη μένει [Χ. Γκάρτζος-Σ. Τσώτου]
TTITLE24=Θυμήσου [Α. Βαρδής-Λ. Παπαδόπουλος]
TTITLE25=Κόκκινο τριαντάφυλλο [Μίκης Θεοδωράκης]
EXTD=
EXTT0=
EXTT1=
EXTT2=
EXTT3=
EXTT4=
EXTT5=
EXTT6=
EXTT7=
EXTT8=
EXTT9=
EXTT10=
EXTT11=
EXTT12=
EXTT13=
EXTT14=
EXTT15=
EXTT16=
EXTT17=
EXTT18=
EXTT19=
EXTT20=
EXTT21=
EXTT22=
EXTT23=
EXTT24=
EXTT25=
PLAYORDER=
